<?xml version="1.0" encoding="utf-8"?>
<!-- Generator: Adobe Illustrator 16.0.0, SVG Export Plug-In . SVG Version: 6.00 Build 0)  -->
<!DOCTYPE svg PUBLIC "-//W3C//DTD SVG 1.1//EN" "http://www.w3.org/Graphics/SVG/1.1/DTD/svg11.dtd">
<svg version="1.1" id="Layer_1" xmlns="http://www.w3.org/2000/svg" xmlns:xlink="http://www.w3.org/1999/xlink" x="0px" y="0px"
	 width="480px" height="640px" viewBox="0 0 480 640" enable-background="new 0 0 480 640" xml:space="preserve">
<g>
	<g>
		<path fill="#7A4141" d="M209,89.833v518.493c0,7.164,4.01,13.645,9.533,18.327c5.149,4.376,11.467,7.196,20.467,7.558V63.95
			C223,64.691,209,75.999,209,89.833z"/>
		<path fill="#7A4141" d="M262.095,71.503c-5.521-4.694-13.119-7.594-21.544-7.594c8.425,0,16.016,2.899,21.537,7.594
			C267.611,76.19,271,82.67,271,89.833v518.493c0,14.274-13.546,25.853-30.316,25.921c0.045,0-0.066,0.003-0.021,0.003
			c16.838,0,30.337-11.607,30.337-25.924V89.833C271,82.67,267.618,76.19,262.095,71.503z"/>
		<path fill="#9A4945" d="M271,608.326V89.833c0-7.163-3.382-13.643-8.905-18.33c-5.521-4.694-12.914-7.594-21.339-7.594
			c-0.564,0-1.756,0.01-1.756,0.04v570.261c0,0.028,0.782,0.039,1.347,0.039c0.05,0,0.32-0.003,0.37-0.003
			C257.486,634.179,271,622.601,271,608.326z"/>
	</g>
	<g>
		<path fill="#768752" d="M373.729,248.974l-40.508-40.498c4.679-0.512,9.226-2.547,12.81-6.144c8.363-8.362,8.363-21.917,0-30.293
			l-21.565-21.553c2.828-0.866,5.486-2.401,7.719-4.644c7.277-7.266,7.277-19.067,0-26.332l-17.116-17.115
			c1.171-0.67,2.267-1.487,3.268-2.486c6.18-6.181,6.18-16.202,0-22.382L251.19,10.382C248.095,7.286,243.965,5.75,240,5.75v244.747
			l95.523,36.681c0,0,27.646,10.557,38.206,0C384.271,276.633,384.271,259.529,373.729,248.974z"/>
		<path fill="#4A553D" d="M228.809,10.382l-67.143,67.146c-6.181,6.18-6.181,16.201,0,22.382c0.999,0.999,2.096,1.816,3.266,2.486
			l-17.115,17.115c-7.278,7.265-7.278,19.066,0,26.332c2.231,2.243,4.889,3.778,7.716,4.644l-21.563,21.553
			c-8.363,8.375-8.363,21.931,0,30.293c3.583,3.597,8.13,5.632,12.812,6.144l-40.508,40.498c-10.544,10.556-10.544,27.66,0,38.204
			c10.557,10.557,38.204,0,38.204,0L240,250.497V5.75C236.036,5.75,231.905,7.286,228.809,10.382z"/>
	</g>
</g>
</svg>
