<?xml version="1.0" encoding="utf-8"?>
<!-- Generator: Adobe Illustrator 16.0.0, SVG Export Plug-In . SVG Version: 6.00 Build 0)  -->
<!DOCTYPE svg PUBLIC "-//W3C//DTD SVG 1.1//EN" "http://www.w3.org/Graphics/SVG/1.1/DTD/svg11.dtd">
<svg version="1.1" id="Layer_1" xmlns="http://www.w3.org/2000/svg" xmlns:xlink="http://www.w3.org/1999/xlink" x="0px" y="0px"
	 width="480px" height="640px" viewBox="0 0 480 640" enable-background="new 0 0 480 640" xml:space="preserve">
<g>
	<g>
		<path fill="#7A4141" d="M213,96.819v516.398c0,7.134,3.27,13.588,8.16,18.254c4.56,4.357,10.84,7.165,17.84,7.525V71.04
			C225,71.779,213,83.04,213,96.819z"/>
		<path fill="#7A4141" d="M259.34,78.563C254.45,73.888,247.835,71,240.375,71c7.459,0,14.012,2.888,18.902,7.563
			C264.168,83.23,267,89.685,267,96.819v516.398c0,14.215-11.771,25.747-26.619,25.815c0.04,0-0.171,0.003-0.131,0.003
			c14.91,0,26.75-11.561,26.75-25.818V96.819C267,89.685,264.23,83.23,259.34,78.563z"/>
		<path fill="#9A4945" d="M267,613.217V96.819c0-7.134-2.77-13.588-7.66-18.255C254.45,73.888,247.96,71,240.5,71
			c-0.5,0-1.5,0.01-1.5,0.04v567.956c0,0.029,0.75,0.039,1.25,0.039c0.044,0,0.087-0.003,0.131-0.003
			C255.229,638.964,267,627.432,267,613.217z"/>
	</g>
	<g>
		<path fill="#768752" d="M374.939,247.244l-40.875-40.863c4.724-0.517,9.311-2.571,12.928-6.2c8.438-8.438,8.438-22.117,0-30.567
			l-21.761-21.748c2.854-0.873,5.536-2.423,7.787-4.686c7.343-7.332,7.343-19.238,0-26.57l-17.271-17.27
			c1.181-0.677,2.287-1.501,3.296-2.509c6.237-6.236,6.237-16.348,0-22.584L251.293,6.495C248.168,3.37,244,1.82,240,1.82v246.961
			l96.388,37.013c0,0,27.898,10.653,38.552,0C385.578,275.154,385.578,257.896,374.939,247.244z"/>
		<path fill="#4A553D" d="M228.708,6.495l-67.751,67.752c-6.237,6.236-6.237,16.348,0,22.584c1.008,1.008,2.115,1.833,3.296,2.509
			l-17.27,17.27c-7.343,7.332-7.343,19.238,0,26.57c2.251,2.263,4.933,3.813,7.786,4.686l-21.76,21.748
			c-8.438,8.451-8.438,22.129,0,30.567c3.616,3.628,8.205,5.683,12.928,6.2l-40.875,40.863c-10.64,10.652-10.64,27.91,0,38.55
			c10.652,10.653,38.551,0,38.551,0L240,248.781V1.82C236,1.82,231.832,3.37,228.708,6.495z"/>
	</g>
</g>
</svg>
